<?xml version="1.0" encoding="UTF-8"?>
<svg version="1.1" xmlns="http://www.w3.org/2000/svg" width="500" height="500">
<path d="M0 0 C0.74851227 -0.00832352 1.49702454 -0.01664703 2.26821899 -0.02522278 C4.74038923 -0.04929753 7.21229531 -0.05809275 9.68457031 -0.06469727 C11.4084684 -0.07366723 13.1323657 -0.08278914 14.85626221 -0.09205627 C18.4709258 -0.10854315 22.08549681 -0.11624553 25.70019531 -0.11914062 C30.31819918 -0.12451677 34.93532512 -0.16216571 39.55308151 -0.20788479 C43.11516443 -0.23772276 46.67703794 -0.24486568 50.23923492 -0.24586678 C51.94080872 -0.25005759 53.6423838 -0.262446 55.34383392 -0.28338432 C71.91840597 -0.47107681 71.91840597 -0.47107681 77.09109497 3.65103149 C82.07799366 9.45796419 83.1537321 16.0758814 83.25488281 23.50561523 C83.27293976 24.34429642 83.2909967 25.1829776 83.30960083 26.04707336 C83.33838773 27.80402566 83.35632457 29.56118704 83.36376953 31.31835938 C83.38775827 34.00093687 83.48640447 36.67456026 83.58691406 39.35522461 C83.82779479 51.59006233 83.82779479 51.59006233 80.68823242 55.6875 C78.00923437 57.40309175 75.54797335 58.35824046 72.51269531 59.30639648 C71.48595703 59.69674072 70.45921875 60.08708496 69.40136719 60.48925781 C66.0686564 61.71795665 62.71383527 62.80484923 59.32519531 63.86889648 C58.1313623 64.25674316 56.9375293 64.64458984 55.70751953 65.04418945 C50.77377808 66.64492042 45.8299823 68.21105455 40.87597656 69.74780273 C21.68549151 75.82378703 2.32412008 87.24994328 -7.52124023 105.48144531 C-13.04815741 116.26199519 -14.98566914 126.85764177 -14.79980469 138.93139648 C-14.80463867 140.51307617 -14.80463867 140.51307617 -14.80957031 142.12670898 C-15.20493342 152.8550476 -15.20493342 152.8550476 -11.48730469 162.30639648 C-11.02582031 161.31381836 -10.56433594 160.32124023 -10.08886719 159.29858398 C-3.87699587 146.23909515 3.03020965 134.40320066 14.51269531 125.30639648 C16.83048807 123.18463595 19.13545962 121.04993621 21.43457031 118.90795898 C23.52917059 117.29369937 24.92867581 116.71378695 27.51269531 116.30639648 C27.51269531 115.64639648 27.51269531 114.98639648 27.51269531 114.30639648 C29.41113281 112.79858398 29.41113281 112.79858398 31.88769531 111.18139648 C32.69980469 110.64256836 33.51191406 110.10374023 34.34863281 109.54858398 C36.51269531 108.30639648 36.51269531 108.30639648 38.51269531 108.30639648 C38.51269531 107.64639648 38.51269531 106.98639648 38.51269531 106.30639648 C40.84863281 104.57983398 40.84863281 104.57983398 43.88769531 102.68139648 C44.88542969 102.04975586 45.88316406 101.41811523 46.91113281 100.76733398 C49.51269531 99.30639648 49.51269531 99.30639648 51.51269531 99.30639648 C51.51269531 98.64639648 51.51269531 97.98639648 51.51269531 97.30639648 C53.19238281 95.86889648 53.19238281 95.86889648 55.38769531 94.30639648 C57.61071789 92.71283192 59.57504256 91.24404924 61.51269531 89.30639648 C62.50269531 89.63639648 63.49269531 89.96639648 64.51269531 90.30639648 C57.58701964 100.90268027 57.58701964 100.90268027 54.51269531 104.30639648 C53.85269531 104.30639648 53.19269531 104.30639648 52.51269531 104.30639648 C52.51269531 104.96639648 52.51269531 105.62639648 52.51269531 106.30639648 C51.85269531 106.30639648 51.19269531 106.30639648 50.51269531 106.30639648 C50.51269531 106.96639648 50.51269531 107.62639648 50.51269531 108.30639648 C49.85269531 108.30639648 49.19269531 108.30639648 48.51269531 108.30639648 C48.51269531 108.96639648 48.51269531 109.62639648 48.51269531 110.30639648 C47.85269531 110.30639648 47.19269531 110.30639648 46.51269531 110.30639648 C46.15691406 111.16491211 46.15691406 111.16491211 45.79394531 112.04077148 C44.23676294 114.79432568 42.38776734 116.47435282 40.01269531 118.55639648 C39.21863281 119.26280273 38.42457031 119.96920898 37.60644531 120.69702148 C35.51269531 122.30639648 35.51269531 122.30639648 33.51269531 122.30639648 C33.51269531 122.96639648 33.51269531 123.62639648 33.51269531 124.30639648 C32.85269531 124.30639648 32.19269531 124.30639648 31.51269531 124.30639648 C31.51269531 124.96639648 31.51269531 125.62639648 31.51269531 126.30639648 C26.03650484 131.30639648 26.03650484 131.30639648 23.51269531 131.30639648 C23.51269531 131.96639648 23.51269531 132.62639648 23.51269531 133.30639648 C22.85269531 133.30639648 22.19269531 133.30639648 21.51269531 133.30639648 C21.51269531 133.96639648 21.51269531 134.62639648 21.51269531 135.30639648 C20.85269531 135.30639648 20.19269531 135.30639648 19.51269531 135.30639648 C19.51269531 135.96639648 19.51269531 136.62639648 19.51269531 137.30639648 C18.85269531 137.30639648 18.19269531 137.30639648 17.51269531 137.30639648 C17.51269531 137.96639648 17.51269531 138.62639648 17.51269531 139.30639648 C16.85269531 139.30639648 16.19269531 139.30639648 15.51269531 139.30639648 C15.14144531 140.11077148 15.14144531 140.11077148 14.76269531 140.93139648 C13.20616995 143.88879468 11.47833858 146.60363699 9.51269531 149.30639648 C8.85269531 149.30639648 8.19269531 149.30639648 7.51269531 149.30639648 C7.51269531 150.29639648 7.51269531 151.28639648 7.51269531 152.30639648 C6.85269531 152.30639648 6.19269531 152.30639648 5.51269531 152.30639648 C5.3812915 152.88977783 5.2498877 153.47315918 5.11450195 154.07421875 C4.54165191 156.19899278 3.81226267 158.03054089 2.88378906 160.02124023 C2.57119141 160.70766602 2.25859375 161.3940918 1.93652344 162.10131836 C1.27976851 163.52797213 0.61831433 164.95247212 -0.04785156 166.37475586 C-1.76255617 170.16272649 -2.94544302 173.04987486 -2.48730469 177.30639648 C-1.99101562 176.84749023 -1.49472656 176.38858398 -0.98339844 175.91577148 C-0.3040625 175.30217773 0.37527344 174.68858398 1.07519531 174.05639648 C1.73648438 173.45311523 2.39777344 172.84983398 3.07910156 172.22827148 C8.49181457 167.95370519 13.3665782 165.82277412 20.07519531 164.30639648 C21.48057402 163.97619336 22.88551509 163.64412275 24.29003906 163.31030273 C24.99241699 163.14546387 25.69479492 162.980625 26.41845703 162.81079102 C29.67973327 162.02531693 32.90623768 161.14514077 36.13769531 160.24389648 C37.76578125 159.79336914 37.76578125 159.79336914 39.42675781 159.33374023 C42.59759395 158.36134192 42.59759395 158.36134192 45.72363281 156.68530273 C48.51269531 155.30639648 48.51269531 155.30639648 51.51269531 155.30639648 C51.51269531 154.64639648 51.51269531 153.98639648 51.51269531 153.30639648 C53.49269531 152.64639648 55.47269531 151.98639648 57.51269531 151.30639648 C57.51269531 150.64639648 57.51269531 149.98639648 57.51269531 149.30639648 C58.80824283 148.27775575 60.15167359 147.30919697 61.51269531 146.36889648 C77.05094485 134.56275398 84.64757668 113.00486757 87.51269531 94.30639648 C88.65707951 85.65682593 89.59962424 76.9830183 90.51269531 68.30639648 C96.38426492 68.25683772 102.25571187 68.22060161 108.12744141 68.1965332 C110.12355674 68.18649596 112.11965745 68.17286328 114.11572266 68.15551758 C116.99027118 68.13116914 119.86462472 68.11989044 122.73925781 68.11108398 C124.07085434 68.09560013 124.07085434 68.09560013 125.42935181 68.07980347 C131.78982745 68.0786602 137.18507302 68.72695095 142.20019531 72.99389648 C142.7609375 73.45151367 143.32167969 73.90913086 143.89941406 74.38061523 C149.8118302 81.43829358 148.95342508 89.65925121 148.91113281 98.40014648 C148.91315677 99.87553043 148.91607089 101.3509134 148.91983032 102.82629395 C148.92423855 105.90943991 148.91787144 108.99232407 148.90380859 112.07543945 C148.88671731 116.01284377 148.89656662 119.94963445 148.91452599 123.8870163 C148.9254047 126.93093426 148.92189885 129.97470851 148.91414261 133.01863098 C148.91215187 134.46979344 148.91455999 135.92096925 148.92158127 137.37211609 C148.97421949 151.30687957 148.97421949 151.30687957 145.51269531 157.30639648 C144.85269531 157.30639648 144.19269531 157.30639648 143.51269531 157.30639648 C143.32707031 157.90452148 143.14144531 158.50264648 142.95019531 159.11889648 C140.37890368 163.03173158 135.79519791 163.87889562 131.51269531 165.30639648 C129.90173673 165.393621 128.28738515 165.42406921 126.67407227 165.41992188 C125.20288689 165.41980858 125.20288689 165.41980858 123.70198059 165.41969299 C122.64564926 165.41453171 121.58931793 165.40937042 120.50097656 165.40405273 C118.87593452 165.40193031 118.87593452 165.40193031 117.21806335 165.39976501 C113.75374606 165.39416208 110.28949311 165.38160906 106.82519531 165.36889648 C104.47819104 165.36388186 102.13118575 165.35931889 99.78417969 165.35522461 C94.02699623 165.34419169 88.26985037 165.32745069 82.51269531 165.30639648 C82.52268806 166.25693909 82.52268806 166.25693909 82.53288269 167.22668457 C82.59945616 173.84565131 82.64458718 180.4645223 82.67749023 187.08374023 C82.69253984 189.55122748 82.71298422 192.01868814 82.73901367 194.48608398 C82.77556457 198.0408384 82.79246049 201.59523787 82.80566406 205.15014648 C82.82114792 206.24629272 82.83663177 207.34243896 82.85258484 208.47180176 C82.85424574 216.09834657 82.23093956 222.08742303 77.13769531 228.11889648 C72.0573848 232.35248857 68.8690646 233.68261594 62.17138672 233.71044922 C61.45038284 233.71731247 60.72937897 233.72417572 59.98652649 233.73124695 C57.61223436 233.74948998 55.23860474 233.74568065 52.86425781 233.73999023 C51.20665269 233.74455385 49.54904946 233.74985996 47.89144897 233.75587463 C44.4197419 233.76480126 40.94826491 233.76238849 37.4765625 233.75244141 C33.03904483 233.74096288 28.60232425 233.76114784 24.16491127 233.79035854 C20.74182126 233.8087539 17.31892098 233.8084213 13.89579391 233.80272102 C12.26040912 233.80256816 10.62501118 233.80858365 8.98967361 233.8210125 C6.69688014 233.83598142 4.40554259 233.82520353 2.11279297 233.80810547 C0.81105133 233.8079393 -0.49069031 233.80777313 -1.83187866 233.80760193 C-7.55151895 233.02336643 -11.1505225 230.6134724 -15.29980469 226.55639648 C-20.07094696 219.46784225 -19.76358044 211.84194855 -19.68261719 203.58764648 C-19.67978729 202.48916382 -19.6769574 201.39068115 -19.67404175 200.25891113 C-19.66290955 196.77462548 -19.63781767 193.29060353 -19.61230469 189.80639648 C-19.6022659 187.43400438 -19.59314162 185.06160822 -19.58496094 182.68920898 C-19.56299303 176.89484925 -19.52958515 171.10064171 -19.48730469 165.30639648 C-20.09372299 165.31527893 -20.7001413 165.32416138 -21.32493591 165.33331299 C-27.66826906 165.42218917 -34.01142371 165.48229713 -40.35522461 165.52612305 C-42.71890454 165.5461693 -45.0825353 165.57341367 -47.44604492 165.6081543 C-50.85445326 165.65697919 -54.26220272 165.67943597 -57.67089844 165.69702148 C-58.71813583 165.71766663 -59.76537323 165.73831177 -60.84434509 165.75958252 C-67.49510868 165.76159116 -72.75200232 164.81131176 -78.48730469 161.30639648 C-80.64355469 159.08764648 -80.64355469 159.08764648 -81.98730469 156.80639648 C-82.68339844 155.67717773 -82.68339844 155.67717773 -83.39355469 154.52514648 C-85.43744004 150.37897906 -85.61998915 146.70373433 -85.6484375 142.10424805 C-85.66284882 140.22144135 -85.66284882 140.22144135 -85.67755127 138.30059814 C-85.68240042 136.93274112 -85.68667896 135.56488196 -85.69042969 134.19702148 C-85.69618715 132.78700765 -85.7019448 131.37699381 -85.70770264 129.96697998 C-85.71819652 127.01143023 -85.72404935 124.05590754 -85.72753906 121.1003418 C-85.73301268 117.33003239 -85.75702287 113.56008613 -85.78551102 109.78989029 C-85.80422221 106.87635282 -85.80934753 103.96290123 -85.81087494 101.04930878 C-85.8138842 99.66035737 -85.82185379 98.27140684 -85.83506012 96.88251495 C-85.97805359 80.68462393 -85.97805359 80.68462393 -80.87402344 74.28295898 C-80.31328125 73.83694336 -79.75253906 73.39092773 -79.17480469 72.93139648 C-78.34529297 72.23916992 -78.34529297 72.23916992 -77.49902344 71.53295898 C-71.27415446 67.73760197 -65.01278273 68.04261548 -57.96386719 68.11108398 C-56.86255463 68.11391388 -55.76124207 68.11674377 -54.6265564 68.11965942 C-51.12169361 68.1308217 -47.61708977 68.15591937 -44.11230469 68.18139648 C-41.73079797 68.19143138 -39.34928723 68.20055634 -36.96777344 68.20874023 C-31.14086271 68.23074812 -25.31410221 68.26418649 -19.48730469 68.30639648 C-19.49729744 67.35585388 -19.49729744 67.35585388 -19.50749207 66.3861084 C-19.57406554 59.76714166 -19.61919655 53.14827067 -19.65209961 46.52905273 C-19.66714921 44.06156549 -19.68759359 41.59410483 -19.71362305 39.12670898 C-19.75017395 35.57195457 -19.76706987 32.0175551 -19.78027344 28.46264648 C-19.79575729 27.36650024 -19.81124115 26.270354 -19.82719421 25.14099121 C-19.82922263 15.82688565 -18.1176836 9.09849195 -11.48730469 2.30639648 C-7.88291172 -0.13227274 -4.20468787 0.0039788 0 0 Z " fill="#0A6D26" transform="translate(218.4873046875,133.693603515625)"/>
<path d="M0 0 C0.99 0.33 1.98 0.66 3 1 C-3.92567568 11.59628378 -3.92567568 11.59628378 -7 15 C-7.66 15 -8.32 15 -9 15 C-9 15.66 -9 16.32 -9 17 C-9.66 17 -10.32 17 -11 17 C-11 17.66 -11 18.32 -11 19 C-11.66 19 -12.32 19 -13 19 C-13 19.66 -13 20.32 -13 21 C-13.66 21 -14.32 21 -15 21 C-15.2371875 21.57234375 -15.474375 22.1446875 -15.71875 22.734375 C-17.27593238 25.4879292 -19.12492797 27.16795634 -21.5 29.25 C-22.2940625 29.95640625 -23.088125 30.6628125 -23.90625 31.390625 C-26 33 -26 33 -28 33 C-28 33.66 -28 34.32 -28 35 C-28.66 35 -29.32 35 -30 35 C-30 35.66 -30 36.32 -30 37 C-35.47619048 42 -35.47619048 42 -38 42 C-38 42.66 -38 43.32 -38 44 C-38.66 44 -39.32 44 -40 44 C-40 44.66 -40 45.32 -40 46 C-40.66 46 -41.32 46 -42 46 C-42 46.66 -42 47.32 -42 48 C-42.66 48 -43.32 48 -44 48 C-44 48.66 -44 49.32 -44 50 C-44.66 50 -45.32 50 -46 50 C-46.2475 50.53625 -46.495 51.0725 -46.75 51.625 C-48.30652537 54.5823982 -50.03435673 57.29724051 -52 60 C-52.66 60 -53.32 60 -54 60 C-54 60.99 -54 61.98 -54 63 C-54.66 63 -55.32 63 -56 63 C-56.12375 63.61875 -56.2475 64.2375 -56.375 64.875 C-57 67 -57 67 -59 69 C-58.67 65.7 -58.34 62.4 -58 59 C-57.01 59 -56.02 59 -55 59 C-54.67 57.35 -54.34 55.7 -54 54 C-57.86234965 54.55176424 -59.62185307 55.93142332 -62 59 C-62.89016386 61.26848209 -63.6176063 63.53670905 -64.2890625 65.87890625 C-65 68 -65 68 -67 71 C-68.32 71 -69.64 71 -71 71 C-70.08458516 65.0914133 -67.20533978 60.95553577 -64 56 C-63.30132812 54.91332031 -62.60265625 53.82664062 -61.8828125 52.70703125 C-57.58869563 46.18219211 -53.13432851 40.881708 -47 36 C-44.6823719 33.87806566 -42.37723302 31.74353724 -40.078125 29.6015625 C-37.98352472 27.98730289 -36.5840195 27.40739046 -34 27 C-34 26.34 -34 25.68 -34 25 C-32.1015625 23.4921875 -32.1015625 23.4921875 -29.625 21.875 C-28.81289062 21.33617187 -28.00078125 20.79734375 -27.1640625 20.2421875 C-25 19 -25 19 -23 19 C-23 18.34 -23 17.68 -23 17 C-20.6640625 15.2734375 -20.6640625 15.2734375 -17.625 13.375 C-16.62726563 12.74335938 -15.62953125 12.11171875 -14.6015625 11.4609375 C-12 10 -12 10 -10 10 C-10 9.34 -10 8.68 -10 8 C-8.3203125 6.5625 -8.3203125 6.5625 -6.125 5 C-3.90197743 3.40643543 -1.93765275 1.93765275 0 0 Z " fill="#25723B" transform="translate(280,223)"/>
<path d="M0 0 C0.99 0.33 1.98 0.66 3 1 C-3.92567568 11.59628378 -3.92567568 11.59628378 -7 15 C-7.66 15 -8.32 15 -9 15 C-9 15.66 -9 16.32 -9 17 C-9.66 17 -10.32 17 -11 17 C-11 17.66 -11 18.32 -11 19 C-11.66 19 -12.32 19 -13 19 C-13 19.66 -13 20.32 -13 21 C-13.66 21 -14.32 21 -15 21 C-15.33 21.99 -15.66 22.98 -16 24 C-16.99 23.67 -17.98 23.34 -19 23 C-19.33 22.34 -19.66 21.68 -20 21 C-21.62974564 21.76074843 -23.25366648 22.53398433 -24.875 23.3125 C-25.77992188 23.74175781 -26.68484375 24.17101562 -27.6171875 24.61328125 C-30.26449476 25.9199388 -30.26449476 25.9199388 -32 29 C-35.625 29.6875 -35.625 29.6875 -39 30 C-37.625 28.5 -37.625 28.5 -36 27 C-35.34 27 -34.68 27 -34 27 C-34 26.34 -34 25.68 -34 25 C-32.1015625 23.4921875 -32.1015625 23.4921875 -29.625 21.875 C-28.81289062 21.33617187 -28.00078125 20.79734375 -27.1640625 20.2421875 C-25 19 -25 19 -23 19 C-23 18.34 -23 17.68 -23 17 C-20.6640625 15.2734375 -20.6640625 15.2734375 -17.625 13.375 C-16.62726563 12.74335938 -15.62953125 12.11171875 -14.6015625 11.4609375 C-12 10 -12 10 -10 10 C-10 9.34 -10 8.68 -10 8 C-8.3203125 6.5625 -8.3203125 6.5625 -6.125 5 C-3.90197743 3.40643543 -1.93765275 1.93765275 0 0 Z " fill="#458152" transform="translate(280,223)"/>
<path d="M0 0 C0.66 0 1.32 0 2 0 C2 17.82 2 35.64 2 54 C-15.49 54 -32.98 54 -51 54 C-50.67 53.34 -50.34 52.68 -50 52 C-33.5 52 -17 52 0 52 C0 34.84 0 17.68 0 0 Z " fill="#54865C" transform="translate(199,150)"/>
<path d="M0 0 C9.4488979 -0.06950346 18.89770783 -0.12281294 28.34680557 -0.15543652 C32.734388 -0.17109403 37.12179556 -0.19233377 41.50927734 -0.22631836 C45.74327056 -0.2589089 49.97709556 -0.27685237 54.21120453 -0.28463173 C55.82675576 -0.2901758 57.44229777 -0.30100203 59.0577774 -0.31719017 C61.32029635 -0.33896085 63.58211976 -0.34196715 65.84472656 -0.34057617 C67.13268127 -0.34723801 68.42063599 -0.35389984 69.74761963 -0.36076355 C73.172533 0.01913787 74.53987912 0.65724761 77 3 C67.25580177 3.06941478 57.51166205 3.12276776 47.76726723 3.15543652 C43.24286816 3.17111343 38.71863786 3.19238839 34.19433594 3.22631836 C29.83067535 3.25883996 25.46717739 3.27683774 21.103405 3.28463173 C19.43596205 3.29018824 17.76852831 3.30103834 16.10115433 3.31719017 C13.77117711 3.33886932 11.44187773 3.34197101 9.11181641 3.34057617 C8.41770157 3.351362 7.72358673 3.36214783 7.00843811 3.3732605 C5.08779907 3.36076355 5.08779907 3.36076355 2 3 C1.34 2.01 0.68 1.02 0 0 Z " fill="#427B53" transform="translate(211,364)"/>
<path d="M0 0 C0.33 0 0.66 0 1 0 C1 22.44 1 44.88 1 68 C0.01 68.495 0.01 68.495 -1 69 C-2.3764709 66.2470582 -2.1348099 64.02663058 -2.14526367 60.94555664 C-2.15164352 59.67406265 -2.15802338 58.40256866 -2.16459656 57.09254456 C-2.16612516 55.69841551 -2.16723916 54.30428595 -2.16796875 52.91015625 C-2.17118095 51.48530544 -2.17454499 50.06045497 -2.17805481 48.63560486 C-2.18404716 45.64711746 -2.1858946 42.658659 -2.18530273 39.67016602 C-2.18520109 35.8388547 -2.19885513 32.00772862 -2.21607494 28.17646122 C-2.22718776 25.23309984 -2.22922217 22.28978334 -2.22869301 19.34640312 C-2.22987414 17.93379515 -2.23430338 16.52118606 -2.24202538 15.10859871 C-2.25181049 13.13370266 -2.2476868 11.15875243 -2.24291992 9.18383789 C-2.24434494 8.05957901 -2.24576996 6.93532013 -2.24723816 5.7769928 C-2 3 -2 3 0 0 Z " fill="#417E50" transform="translate(135,215)"/>
<path d="M0 0 C1.32 0.33 2.64 0.66 4 1 C3.67 2.65 3.34 4.3 3 6 C2.01 6 1.02 6 0 6 C-0.02578125 6.75023437 -0.0515625 7.50046875 -0.078125 8.2734375 C-0.48230093 15.56697594 -1.86340684 21.40585995 -5 28 C-5.66 27.01 -6.32 26.02 -7 25 C-7.556875 24.401875 -8.11375 23.80375 -8.6875 23.1875 C-10 21 -10 21 -9.8125 17.8125 C-9.544375 16.884375 -9.27625 15.95625 -9 15 C-8.34 14.67 -7.68 14.34 -7 14 C-6.09274566 11.88672575 -6.09274566 11.88672575 -5.375 9.4375 C-4.98441406 8.19806641 -4.98441406 8.19806641 -4.5859375 6.93359375 C-4.39257812 6.29550781 -4.19921875 5.65742188 -4 5 C-3.34 5 -2.68 5 -2 5 C-1.34 3.35 -0.68 1.7 0 0 Z " fill="#22753A" transform="translate(222,276)"/>
<path d="M0 0 C0.33 0 0.66 0 1 0 C1.04631461 8.68388504 1.08186471 17.36772763 1.10362434 26.05170918 C1.1140672 30.08391491 1.12823551 34.11603622 1.15087891 38.14819336 C1.17258947 42.03852863 1.18456484 45.92878264 1.18975449 49.81917381 C1.19345346 51.30435656 1.20067654 52.7895348 1.21146011 54.274683 C1.22595148 56.35289797 1.22797896 58.43077594 1.22705078 60.5090332 C1.231492 61.69261917 1.23593323 62.87620514 1.24050903 64.09565735 C1 67 1 67 -1 70 C-2.29424693 63.18925999 -2.04702068 56.46004006 -1.9140625 49.55078125 C-1.89282318 48.26060593 -1.87158386 46.9704306 -1.84970093 45.64115906 C-1.804419 42.92207296 -1.75522149 40.2030947 -1.703125 37.48413086 C-1.63670377 34.00410718 -1.57948507 30.52400471 -1.52509499 27.0437746 C-1.47191747 23.71269032 -1.41147152 20.38175139 -1.3515625 17.05078125 C-1.33171295 15.80283279 -1.3118634 14.55488434 -1.29141235 13.26911926 C-1.26823944 12.11079086 -1.24506653 10.95246246 -1.22119141 9.7590332 C-1.20263092 8.74090042 -1.18407043 7.72276764 -1.16494751 6.67378235 C-1.01873189 4.30364207 -0.67262036 2.26901182 0 0 Z " fill="#468254" transform="translate(366,217)"/>
<path d="M0 0 C0.99 0.33 1.98 0.66 3 1 C-3.92567568 11.59628378 -3.92567568 11.59628378 -7 15 C-7.66 15 -8.32 15 -9 15 C-9 15.66 -9 16.32 -9 17 C-9.66 17 -10.32 17 -11 17 C-11.33 17.66 -11.66 18.32 -12 19 C-12.28875 18.195625 -12.5775 17.39125 -12.875 16.5625 C-13.73262568 13.8673532 -13.73262568 13.8673532 -16 13 C-12.25 10 -12.25 10 -10 10 C-10 9.34 -10 8.68 -10 8 C-8.3203125 6.5625 -8.3203125 6.5625 -6.125 5 C-3.90197743 3.40643543 -1.93765275 1.93765275 0 0 Z " fill="#457950" transform="translate(280,223)"/>
<path d="M0 0 C2.97 0.495 2.97 0.495 6 1 C4.33333333 2.66666667 2.66666667 4.33333333 1 6 C0.278125 6.763125 -0.44375 7.52625 -1.1875 8.3125 C-3 10 -3 10 -5 10 C-5 10.66 -5 11.32 -5 12 C-5.66 12 -6.32 12 -7 12 C-7 12.66 -7 13.32 -7 14 C-12.47619048 19 -12.47619048 19 -15 19 C-15.33 19.66 -15.66 20.32 -16 21 C-16 19.02 -16 17.04 -16 15 C-15.360625 14.896875 -14.72125 14.79375 -14.0625 14.6875 C-13.0415625 14.3471875 -13.0415625 14.3471875 -12 14 C-11.67 13.01 -11.34 12.02 -11 11 C-10.34 11 -9.68 11 -9 11 C-8.34 9.35 -7.68 7.7 -7 6 C-6.34 6.33 -5.68 6.66 -5 7 C-2.65941363 4.87219421 -1.29299694 2.88437779 0 0 Z " fill="#3F7B4D" transform="translate(257,246)"/>
<path d="M0 0 C1.5 1.375 1.5 1.375 3 3 C3 3.66 3 4.32 3 5 C0 6 0 6 -3 5 C-3.66 6.32 -4.32 7.64 -5 9 C-5.66 9 -6.32 9 -7 9 C-7.33 9.99 -7.66 10.98 -8 12 C-8.66 12 -9.32 12 -10 12 C-10.99 13.485 -10.99 13.485 -12 15 C-16.75 14.125 -16.75 14.125 -19 13 C-19 12.34 -19 11.68 -19 11 C-17.9275 10.7525 -16.855 10.505 -15.75 10.25 C-11.83284382 8.94428127 -10.7778092 7.86461573 -8 5 C-6.23828125 4.14453125 -6.23828125 4.14453125 -4.3125 3.375 C-0.92312274 2.39177364 -0.92312274 2.39177364 0 0 Z " fill="#096824" transform="translate(260,242)"/>
<path d="M0 0 C2 1 4 2 6 3 C5.67 4.65 5.34 6.3 5 8 C2.03 7.505 2.03 7.505 -1 7 C-1 7.66 -1 8.32 -1 9 C-5.455 9.495 -5.455 9.495 -10 10 C-3.71428571 2.42857143 -3.71428571 2.42857143 0 0 Z " fill="#0A6826" transform="translate(240,253)"/>
<path d="M0 0 C1.13529002 3.34491489 0.86633118 5.26065531 -0.3125 8.5625 C-0.57675781 9.32691406 -0.84101563 10.09132813 -1.11328125 10.87890625 C-2 13 -2 13 -4 16 C-5.32 16 -6.64 16 -8 16 C-7.42070126 11.97387377 -6.14350034 9.19196689 -4 5.75 C-3.46375 4.87859375 -2.9275 4.0071875 -2.375 3.109375 C-1 1 -1 1 0 0 Z " fill="#2F7241" transform="translate(217,278)"/>
<path d="M0 0 C0.99 0.33 1.98 0.66 3 1 C2.67 2.98 2.34 4.96 2 7 C0.35 7 -1.3 7 -3 7 C-3.33 7.66 -3.66 8.32 -4 9 C-4.66 9 -5.32 9 -6 9 C-6 8.34 -6 7.68 -6 7 C-6.66 6.67 -7.32 6.34 -8 6 C-7.67 5.34 -7.34 4.68 -7 4 C-7.66 3.67 -8.32 3.34 -9 3 C-6.04335481 1.5216774 -3.25770263 1.93967217 0 2 C0 1.34 0 0.68 0 0 Z " fill="#086A25" transform="translate(239,260)"/>
<path d="M0 0 C1.32 0.33 2.64 0.66 4 1 C3.67 2.65 3.34 4.3 3 6 C2.01 6 1.02 6 0 6 C-0.061875 6.78375 -0.12375 7.5675 -0.1875 8.375 C-0.5896875 9.674375 -0.5896875 9.674375 -1 11 C-3.5625 12.3125 -3.5625 12.3125 -6 13 C-5.67 10.69 -5.34 8.38 -5 6 C-4.01 5.67 -3.02 5.34 -2 5 C-0.78130071 2.49552484 -0.78130071 2.49552484 0 0 Z " fill="#066D22" transform="translate(222,276)"/>
<path d="M0 0 C4.76596424 0.89230608 7.77941392 3.47114623 11 7 C12.4375 10.375 12.4375 10.375 13 13 C11.68 13.33 10.36 13.66 9 14 C8.87625 13.195625 8.7525 12.39125 8.625 11.5625 C8.41875 10.716875 8.2125 9.87125 8 9 C7.34 8.67 6.68 8.34 6 8 C6 7.34 6 6.68 6 6 C4.68 5.67 3.36 5.34 2 5 C2 3.68 2 2.36 2 1 C1.34 0.67 0.68 0.34 0 0 Z " fill="#487F54" transform="translate(353,203)"/>
<path d="M0 0 C1.16660156 0.09345703 2.33320313 0.18691406 3.53515625 0.28320312 C5.37013672 0.43885742 5.37013672 0.43885742 7.2421875 0.59765625 C8.47324219 0.69755859 9.70429688 0.79746094 10.97265625 0.90039062 C14.02129002 1.14853523 17.06938676 1.40201265 20.1171875 1.66015625 C20.1171875 1.99015625 20.1171875 2.32015625 20.1171875 2.66015625 C16.13838522 2.85600978 12.15913594 3.04044295 8.1796875 3.22265625 C6.47522461 3.30676758 6.47522461 3.30676758 4.73632812 3.39257812 C3.65673828 3.44091797 2.57714844 3.48925781 1.46484375 3.5390625 C-0.03550415 3.60975952 -0.03550415 3.60975952 -1.56616211 3.68188477 C-3.8828125 3.66015625 -3.8828125 3.66015625 -4.8828125 2.66015625 C-5.8728125 2.00015625 -6.8628125 1.34015625 -7.8828125 0.66015625 C-5.10126619 -0.73061691 -3.09348695 -0.25528776 0 0 Z " fill="#27723C" transform="translate(216.8828125,134.33984375)"/>
<path d="M0 0 C1.32 0.66 2.64 1.32 4 2 C2.576875 2.6496875 2.576875 2.6496875 1.125 3.3125 C-2.20041937 4.79302201 -2.20041937 4.79302201 -4 8 C-7.625 8.6875 -7.625 8.6875 -11 9 C-9.625 7.5 -9.625 7.5 -8 6 C-7.34 6 -6.68 6 -6 6 C-6 5.34 -6 4.68 -6 4 C-4.03852126 2.61061923 -2.03833424 1.2739589 0 0 Z " fill="#4D835C" transform="translate(252,244)"/>
<path d="M0 0 C0.5775 0.37125 1.155 0.7425 1.75 1.125 C-1.25 3.125 -1.25 3.125 -4.25 3.125 C-4.58 4.115 -4.91 5.105 -5.25 6.125 C-6.9 5.795 -8.55 5.465 -10.25 5.125 C-9.92 4.465 -9.59 3.805 -9.25 3.125 C-8.26 3.125 -7.27 3.125 -6.25 3.125 C-6.25 2.465 -6.25 1.805 -6.25 1.125 C-2.80384615 -1.09038462 -2.80384615 -1.09038462 0 0 Z " fill="#3B7A4B" transform="translate(276.25,285.875)"/>
<path d="M0 0 C0.33 0.66 0.66 1.32 1 2 C1.99 2.33 2.98 2.66 4 3 C3.01 3.33 2.02 3.66 1 4 C0.01 5.485 0.01 5.485 -1 7 C-1 6.34 -1 5.68 -1 5 C-2.32 5.33 -3.64 5.66 -5 6 C-5 6.99 -5 7.98 -5 9 C-6.65 9.33 -8.3 9.66 -10 10 C-10 9.34 -10 8.68 -10 8 C-8.06640625 6.30859375 -8.06640625 6.30859375 -5.5625 4.4375 C-2.67307373 2.34532911 -2.67307373 2.34532911 0 0 Z " fill="#2B7140" transform="translate(286,275)"/>
<path d="M0 0 C0.33 0 0.66 0 1 0 C1.99 4.95 2.98 9.9 4 15 C2.35 15 0.7 15 -1 15 C-1 16.98 -1 18.96 -1 21 C-1.33 21 -1.66 21 -2 21 C-2.29296875 14.9453125 -2.29296875 14.9453125 -2 13 C-1.01 12.34 -0.02 11.68 1 11 C0.4740625 9.6696875 0.4740625 9.6696875 -0.0625 8.3125 C-1.01755602 4.93796874 -0.97151132 3.30313848 0 0 Z " fill="#588C63" transform="translate(203,285)"/>
<path d="M0 0 C0.66 0.33 1.32 0.66 2 1 C2 2.32 2 3.64 2 5 C2.66 5 3.32 5 4 5 C4 5.66 4 6.32 4 7 C4.99 7.33 5.98 7.66 7 8 C7 9.32 7 10.64 7 12 C3.7558811 10.95724749 2.39805336 9.38759509 0.6875 6.5625 C-1 3 -1 3 0 0 Z " fill="#3E794D" transform="translate(135,283)"/>
<path d="M0 0 C1.21236328 0.01353516 1.21236328 0.01353516 2.44921875 0.02734375 C3.37154297 0.04474609 3.37154297 0.04474609 4.3125 0.0625 C1.7472341 1.77267726 -0.56710965 2.96667811 -3.375 4.1875 C-4.18324219 4.54070312 -4.99148437 4.89390625 -5.82421875 5.2578125 C-6.43910156 5.52335938 -7.05398437 5.78890625 -7.6875 6.0625 C-7.6875 4.4125 -7.6875 2.7625 -7.6875 1.0625 C-4.80538698 0.10179566 -2.98899956 -0.04331883 0 0 Z " fill="#397949" transform="translate(247.6875,204.9375)"/>
<path d="M0 0 C1.0625 1.8125 1.0625 1.8125 2 4 C1.67 4.99 1.34 5.98 1 7 C1.33 7.66 1.66 8.32 2 9 C1.34 9.66 0.68 10.32 0 11 C-1.32 10.34 -2.64 9.68 -4 9 C-2.25 2.25 -2.25 2.25 0 0 Z " fill="#338149" transform="translate(214,308)"/>
<path d="M0 0 C1.32 0.66 2.64 1.32 4 2 C-0.625 6.875 -0.625 6.875 -4 8 C-4.33 8.66 -4.66 9.32 -5 10 C-5 8.02 -5 6.04 -5 4 C-4.0409375 3.8453125 -4.0409375 3.8453125 -3.0625 3.6875 C-2.381875 3.460625 -1.70125 3.23375 -1 3 C-0.67 2.01 -0.34 1.02 0 0 Z " fill="#428153" transform="translate(246,257)"/>
<path d="M0 0 C1.65 0.33 3.3 0.66 5 1 C3.02 3.31 1.04 5.62 -1 8 C-1.66 6.68 -2.32 5.36 -3 4 C-2.01 2.68 -1.02 1.36 0 0 Z " fill="#377747" transform="translate(221,219)"/>
<path d="M0 0 C0.66 0.33 1.32 0.66 2 1 C1.67 1.99 1.34 2.98 1 4 C-1.28515625 4.94921875 -1.28515625 4.94921875 -4.0625 5.6875 C-5.44115234 6.06455078 -5.44115234 6.06455078 -6.84765625 6.44921875 C-7.55792969 6.63097656 -8.26820313 6.81273437 -9 7 C-9 5.68 -9 4.36 -9 3 C-4.545 2.505 -4.545 2.505 0 2 C0 1.34 0 0.68 0 0 Z " fill="#4C835A" transform="translate(290,189)"/>
<path d="M0 0 C0.598125 0.20625 1.19625 0.4125 1.8125 0.625 C0.3275 3.1 0.3275 3.1 -1.1875 5.625 C-2.8375 5.295 -4.4875 4.965 -6.1875 4.625 C-5.03076352 1.15479057 -3.91311293 -0.67081936 0 0 Z " fill="#2C703D" transform="translate(229.1875,302.375)"/>
<path d="M0 0 C0.66 0 1.32 0 2 0 C1.86722656 0.58007812 1.73445312 1.16015625 1.59765625 1.7578125 C0.60295999 6.15770982 -0.31368332 10.53894158 -1 15 C-1.33 15 -1.66 15 -2 15 C-2.05406122 13.06280622 -2.09282025 11.12518079 -2.125 9.1875 C-2.14820313 8.10855469 -2.17140625 7.02960938 -2.1953125 5.91796875 C-2 3 -2 3 0 0 Z " fill="#598F65" transform="translate(205,245)"/>
<path d="M0 0 C0.66 0.66 1.32 1.32 2 2 C1.625 4.625 1.625 4.625 1 7 C-0.65 7 -2.3 7 -4 7 C-3.6875 4.625 -3.6875 4.625 -3 2 C-2.01 1.34 -1.02 0.68 0 0 Z " fill="#0F6528" transform="translate(266,236)"/>
<path d="M0 0 C1 3 1 3 1 5 C1.66 5.33 2.32 5.66 3 6 C-0.625 9 -0.625 9 -4 9 C-2.94124926 5.59687262 -1.99097846 2.98646769 0 0 Z " fill="#428154" transform="translate(297,258)"/>
<path d="M0 0 C1.32 0 2.64 0 4 0 C2.55049545 3.7910119 0.84827434 7.3874638 -1 11 C-1.33 11 -1.66 11 -2 11 C-2.19622241 6.78121808 -1.80230168 3.82989106 0 0 Z " fill="#417A4E" transform="translate(209,234)"/>
<path d="M0 0 C0.33 0 0.66 0 1 0 C2.32286246 4.96073422 2.08893197 9.91111512 2 15 C0.48046875 13.88671875 0.48046875 13.88671875 -1 12 C-1.07421875 9.08203125 -1.07421875 9.08203125 -0.6875 5.8125 C-0.56761719 4.72582031 -0.44773437 3.63914063 -0.32421875 2.51953125 C-0.21722656 1.68808594 -0.11023438 0.85664063 0 0 Z " fill="#4A8258" transform="translate(307,219)"/>
<path d="M0 0 C1.32 0.33 2.64 0.66 4 1 C5.25 4.0625 5.25 4.0625 6 7 C4.68 7.33 3.36 7.66 2 8 C1.34 5.36 0.68 2.72 0 0 Z " fill="#2E6F3E" transform="translate(360,209)"/>
<path d="M0 0 C0.66 0.33 1.32 0.66 2 1 C-0.33846154 6.66153846 -0.33846154 6.66153846 -3.6875 8.375 C-4.450625 8.58125 -5.21375 8.7875 -6 9 C-4.68775452 5.06326356 -3.08089673 2.77280706 0 0 Z " fill="#4F845A" transform="translate(207,136)"/>
<path d="M0 0 C0.99 0.33 1.98 0.66 3 1 C1.02 3.97 1.02 3.97 -1 7 C-1.99 6.67 -2.98 6.34 -4 6 C-2.84826645 3.53199953 -1.95216435 1.95216435 0 0 Z " fill="#6D836E" transform="translate(280,223)"/>
<path d="M0 0 C1.32 0.33 2.64 0.66 4 1 C3.34 2.32 2.68 3.64 2 5 C0.35 5 -1.3 5 -3 5 C-2.67 4.01 -2.34 3.02 -2 2 C-1.34 2 -0.68 2 0 2 C0 1.34 0 0.68 0 0 Z " fill="#3A794C" transform="translate(257,240)"/>
<path d="M0 0 C0.66 0.99 1.32 1.98 2 3 C-2.95 4.485 -2.95 4.485 -8 6 C-7.34 4.35 -6.68 2.7 -6 1 C-5.01 1 -4.02 1 -3 1 C-3 1.66 -3 2.32 -3 3 C-2.34 3 -1.68 3 -1 3 C-0.67 2.01 -0.34 1.02 0 0 Z " fill="#478157" transform="translate(277,194)"/>
<path d="M0 0 C-1.0975223 2.99324263 -1.67682892 3.84610901 -4.625 5.25 C-5.40875 5.4975 -6.1925 5.745 -7 6 C-7 5.01 -7 4.02 -7 3 C-6.34 3 -5.68 3 -5 3 C-5 2.34 -5 1.68 -5 1 C-3 0 -3 0 0 0 Z " fill="#51875C" transform="translate(362,291)"/>
<path d="M0 0 C1.32 1.32 2.64 2.64 4 4 C3.34 4 2.68 4 2 4 C2 4.66 2 5.32 2 6 C1.01 6.33 0.02 6.66 -1 7 C-1.625 5.1875 -1.625 5.1875 -2 3 C-1.34 2.01 -0.68 1.02 0 0 Z " fill="#2C7341" transform="translate(250,252)"/>
<path d="M0 0 C0.66 0.33 1.32 0.66 2 1 C-0.65654657 4.73884332 -2.58110387 6.64978174 -7 8 C-5.50902342 4.2047869 -3.24299151 2.38957269 0 0 Z " fill="#628F6B" transform="translate(143,204)"/>
<path d="M0 0 C0.33 0.99 0.66 1.98 1 3 C-0.8125 5.6875 -0.8125 5.6875 -3 8 C-3.66 8 -4.32 8 -5 8 C-5.33 7.01 -5.66 6.02 -6 5 C-5.34 5 -4.68 5 -4 5 C-4 4.34 -4 3.68 -4 3 C-3.34 3 -2.68 3 -2 3 C-1.67 2.34 -1.34 1.68 -1 1 C-0.67 0.67 -0.34 0.34 0 0 Z " fill="#51825D" transform="translate(298,355)"/>
<path d="M0 0 C0.66 0.33 1.32 0.66 2 1 C0.68 2.65 -0.64 4.3 -2 6 C-1.34 6.33 -0.68 6.66 0 7 C-2.31 7.33 -4.62 7.66 -7 8 C-6.02133662 6.85373678 -5.04205413 5.70800212 -4.0625 4.5625 C-3.51722656 3.92441406 -2.97195312 3.28632813 -2.41015625 2.62890625 C-1.63204305 1.73008851 -0.84063472 0.84063472 0 0 Z " fill="#5B8B65" transform="translate(237,255)"/>
<path d="M0 0 C-2.26969744 2.26969744 -3.97395487 2.99131829 -7 4 C-8.32 4 -9.64 4 -11 4 C-11 3.01 -11 2.02 -11 1 C-7.26562152 0.12132271 -3.83225427 -0.08912219 0 0 Z " fill="#0D6127" transform="translate(259,201)"/>
<path d="M0 0 C0.75 1.75 0.75 1.75 1 4 C-0.8125 6.25 -0.8125 6.25 -3 8 C-3.66 8 -4.32 8 -5 8 C-3.62845496 5.04590299 -2.01136276 2.55991624 0 0 Z " fill="#4A8355" transform="translate(292,267)"/>
<path d="M0 0 C1.98 0 3.96 0 6 0 C6 0.66 6 1.32 6 2 C5.34 2 4.68 2 4 2 C4 2.66 4 3.32 4 4 C3.34 4 2.68 4 2 4 C1.67 4.66 1.34 5.32 1 6 C0.67 4.02 0.34 2.04 0 0 Z " fill="#387B49" transform="translate(234,267)"/>
<path d="M0 0 C-0.33 0.99 -0.66 1.98 -1 3 C-3.5625 4.1875 -3.5625 4.1875 -6 5 C-6 3.68 -6 2.36 -6 1 C-4 0 -4 0 0 0 Z " fill="#3F764D" transform="translate(299,186)"/>
<path d="M0 0 C0.66 0.33 1.32 0.66 2 1 C2.75 3.375 2.75 3.375 3 6 C2.01 7.485 2.01 7.485 1 9 C-1 6 -1 6 -0.625 2.8125 C-0.41875 1.884375 -0.2125 0.95625 0 0 Z " fill="#468457" transform="translate(202,351)"/>
<path d="M0 0 C1.4606285 2.64738916 2 3.89448334 2 7 C0.68 7 -0.64 7 -2 7 C-1.125 2.25 -1.125 2.25 0 0 Z " fill="#4E8A60" transform="translate(211,287)"/>
<path d="M0 0 C2.46800047 1.15173355 4.04783565 2.04783565 6 4 C4.02 4.33 2.04 4.66 0 5 C-0.5625 3.0625 -0.5625 3.0625 -1 1 C-0.67 0.67 -0.34 0.34 0 0 Z " fill="#1F7336" transform="translate(240,253)"/>
<path d="M0 0 C0.66 0.33 1.32 0.66 2 1 C1.67 2.32 1.34 3.64 1 5 C0.34 5 -0.32 5 -1 5 C-1.33 5.66 -1.66 6.32 -2 7 C-2.33 5.02 -2.66 3.04 -3 1 C-2.01 0.67 -1.02 0.34 0 0 Z " fill="#327143" transform="translate(270,235)"/>
<path d="M0 0 C0.33 0.66 0.66 1.32 1 2 C0.34 2 -0.32 2 -1 2 C-1 2.99 -1 3.98 -1 5 C-2.65 5.33 -4.3 5.66 -6 6 C-6 5.34 -6 4.68 -6 4 C-4.03852126 2.61061923 -2.03833424 1.2739589 0 0 Z " fill="#5D8F6B" transform="translate(282,279)"/>
<path d="M0 0 C0.33 0.99 0.66 1.98 1 3 C1.99 3.33 2.98 3.66 4 4 C3.34 5.65 2.68 7.3 2 9 C0.14223235 5.86501708 -0.20140476 3.62528568 0 0 Z " fill="#317846" transform="translate(308,214)"/>
</svg>
